<svg id="visual" viewBox="0 0 675 900" width="675" height="900" xmlns="http://www.w3.org/2000/svg" xmlns:xlink="http://www.w3.org/1999/xlink" version="1.1"><path d="M0 253L75 262L150 262L225 289L300 226L375 199L450 253L525 226L600 316L675 217L675 0L600 0L525 0L450 0L375 0L300 0L225 0L150 0L75 0L0 0Z" fill="#00cc8e"></path><path d="M0 433L75 361L150 361L225 397L300 325L375 379L450 406L525 379L600 415L675 397L675 215L600 314L525 224L450 251L375 197L300 224L225 287L150 260L75 260L0 251Z" fill="#00bd8b"></path><path d="M0 550L75 478L150 469L225 505L300 415L375 451L450 487L525 487L600 514L675 496L675 395L600 413L525 377L450 404L375 377L300 323L225 395L150 359L75 359L0 431Z" fill="#00ae87"></path><path d="M0 613L75 577L150 577L225 586L300 523L375 514L450 550L525 595L600 622L675 595L675 494L600 512L525 485L450 485L375 449L300 413L225 503L150 467L75 476L0 548Z" fill="#00a081"></path><path d="M0 748L75 649L150 676L225 694L300 622L375 667L450 676L525 694L600 703L675 676L675 593L600 620L525 593L450 548L375 512L300 521L225 584L150 575L75 575L0 611Z" fill="#00917b"></path><path d="M0 901L75 901L150 901L225 901L300 901L375 901L450 901L525 901L600 901L675 901L675 674L600 701L525 692L450 674L375 665L300 620L225 692L150 674L75 647L0 746Z" fill="#038373"></path></svg>